<?xml version="1.0" encoding="UTF-8" standalone="no"?>
<!DOCTYPE svg PUBLIC "-//W3C//DTD SVG 1.1//EN" "http://www.w3.org/Graphics/SVG/1.1/DTD/svg11.dtd">
<svg width="100%" height="100%" viewBox="0 0 800 800" version="1.1" xmlns="http://www.w3.org/2000/svg" xmlns:xlink="http://www.w3.org/1999/xlink" xml:space="preserve" xmlns:serif="http://www.serif.com/" style="fill-rule:evenodd;clip-rule:evenodd;stroke-linejoin:round;stroke-miterlimit:2;">
    <g transform="matrix(1.06695,0,0,1.06695,-26.7805,-26.8071)">
        <g id="SVGRepo_iconCarrier">
            <path d="M774.9,402.275C774.875,195.25 607.05,27.425 400,27.425C192.95,27.425 25.1,195.275 25.1,402.325C25.1,588.7 161.1,743.3 339.25,772.325L341.4,772.625L341.4,510.675L246.2,510.675L246.2,402.275L341.4,402.275L341.4,319.725C340.925,315.55 340.675,310.7 340.675,305.8C340.675,232.725 399.925,173.475 473,173.475C476.525,173.475 480.025,173.625 483.5,173.875L483.05,173.85C513.025,174.275 542.025,176.925 570.325,181.65L566.975,181.175L566.975,273.425L519.675,273.425C517.525,273.125 515.05,272.95 512.55,272.95C482.625,272.95 458.35,297.2 458.35,327.15C458.35,328.85 458.425,330.525 458.575,332.2L458.55,331.975L458.55,402.275L562.525,402.275L545.9,510.675L458.55,510.675L458.55,772.625C638.875,743.275 774.875,588.65 774.9,402.275Z" style="fill-rule:nonzero;"/>
        </g>
    </g>
</svg>
