<?xml version="1.0" encoding="UTF-8" standalone="no"?>
<!DOCTYPE svg PUBLIC "-//W3C//DTD SVG 1.1//EN" "http://www.w3.org/Graphics/SVG/1.1/DTD/svg11.dtd">
<svg width="100%" height="100%" viewBox="0 0 15 15" version="1.1" xmlns="http://www.w3.org/2000/svg" xmlns:xlink="http://www.w3.org/1999/xlink" xml:space="preserve" xmlns:serif="http://www.serif.com/" style="fill-rule:evenodd;clip-rule:evenodd;stroke-linejoin:round;stroke-miterlimit:2;">
    <g transform="matrix(1,0,0,1,-296.312,-336.328)">
        <path d="M299.27,340.22L297.462,340.235C296.699,340.235 296.448,340.713 296.633,341.402L298.299,348.802C298.665,350.169 298.909,350.416 299.161,350.416L299.642,350.416C300.596,350.416 300.934,349.844 301.305,348.802L303.939,341.402L300.471,341.402C300.224,340.848 300.139,340.22 299.27,340.22L299.27,340.22Z" style="fill:url(#_Linear1);fill-rule:nonzero;"/>
    </g>
    <g transform="matrix(1,0,0,1,-296.312,-336.328)">
        <path d="M305.072,336.328L309.317,336.328C309.657,336.328 310.363,336.522 310.084,337.335L306.559,349.16C306.195,350.182 305.861,350.415 304.79,350.415L299.161,350.415C299.453,350.415 299.764,349.844 300.135,348.802L303.487,337.462C303.732,336.811 304.058,336.328 305.072,336.328Z" style="fill:url(#_Linear2);fill-rule:nonzero;"/>
    </g>
    <defs>
        <linearGradient id="_Linear1" x1="0" y1="0" x2="1" y2="0" gradientUnits="userSpaceOnUse" gradientTransform="matrix(5.62528,10.637,-10.637,5.62528,297.043,340.227)"><stop offset="0" style="stop-color:rgb(195,88,248);stop-opacity:1"/><stop offset="1" style="stop-color:rgb(120,53,255);stop-opacity:1"/></linearGradient>
        <linearGradient id="_Linear2" x1="0" y1="0" x2="1" y2="0" gradientUnits="userSpaceOnUse" gradientTransform="matrix(-5.11394,14.0122,-14.0122,-5.11394,305.729,336.341)"><stop offset="0" style="stop-color:rgb(181,80,250);stop-opacity:1"/><stop offset="1" style="stop-color:rgb(242,160,175);stop-opacity:1"/></linearGradient>
    </defs>
</svg>
